<svg width="539" height="646" viewBox="0 0 539 646" fill="none" xmlns="http://www.w3.org/2000/svg">
<path d="M117.8 2.97379C117.8 4.61617 119.139 5.94758 120.79 5.94758C122.442 5.94758 123.781 4.61617 123.781 2.97379C123.781 1.33141 122.442 -5.85243e-08 120.79 -1.30717e-07C119.139 -2.0291e-07 117.8 1.33141 117.8 2.97379Z" fill="#9871F5"/>
<path d="M117.8 23.747C117.8 25.3894 119.139 26.7208 120.79 26.7208C122.442 26.7208 123.781 25.3894 123.781 23.747C123.781 22.1046 122.442 20.7732 120.79 20.7732C119.139 20.7732 117.8 22.1046 117.8 23.747Z" fill="#9871F5"/>
<path d="M117.8 44.5015C117.8 46.1439 119.139 47.4753 120.79 47.4753C122.442 47.4753 123.781 46.1439 123.781 44.5015C123.781 42.8591 122.442 41.5277 120.79 41.5277C119.139 41.5277 117.8 42.8591 117.8 44.5015Z" fill="#9871F5"/>
<path d="M117.8 65.2718C117.8 66.9141 119.139 68.2456 120.79 68.2456C122.442 68.2456 123.781 66.9141 123.781 65.2718C123.781 63.6294 122.442 62.298 120.79 62.298C119.139 62.298 117.8 63.6294 117.8 65.2718Z" fill="#9871F5"/>
<path d="M117.8 86.0281C117.8 87.6705 119.139 89.0019 120.79 89.0019C122.442 89.0019 123.781 87.6705 123.781 86.0281C123.781 84.3857 122.442 83.0543 120.79 83.0543C119.139 83.0543 117.8 84.3857 117.8 86.0281Z" fill="#9871F5"/>
<path d="M117.8 106.798C117.8 108.441 119.139 109.772 120.79 109.772C122.442 109.772 123.781 108.441 123.781 106.798C123.781 105.156 122.442 103.825 120.79 103.825C119.139 103.825 117.8 105.156 117.8 106.798Z" fill="#9871F5"/>
<path d="M96.9264 2.97403C96.9264 4.61641 98.2653 5.94782 99.9169 5.94782C101.568 5.94782 102.907 4.61641 102.907 2.97403C102.907 1.33166 101.568 0.000244082 99.9169 0.00024401C98.2653 0.000243938 96.9264 1.33166 96.9264 2.97403Z" fill="#9871F5"/>
<path d="M96.9264 23.747C96.9264 25.3894 98.2653 26.7208 99.9169 26.7208C101.568 26.7208 102.907 25.3894 102.907 23.747C102.907 22.1046 101.568 20.7732 99.9169 20.7732C98.2653 20.7732 96.9264 22.1046 96.9264 23.747Z" fill="#9871F5"/>
<path d="M96.9264 44.5015C96.9264 46.1439 98.2653 47.4753 99.9169 47.4753C101.568 47.4753 102.907 46.1439 102.907 44.5015C102.907 42.8591 101.568 41.5277 99.9169 41.5277C98.2653 41.5277 96.9264 42.8591 96.9264 44.5015Z" fill="#9871F5"/>
<path d="M96.9264 65.2718C96.9264 66.9141 98.2653 68.2456 99.9169 68.2456C101.568 68.2456 102.907 66.9141 102.907 65.2718C102.907 63.6294 101.568 62.298 99.9169 62.298C98.2653 62.298 96.9264 63.6294 96.9264 65.2718Z" fill="#9871F5"/>
<path d="M96.9264 86.0281C96.9264 87.6705 98.2653 89.0019 99.9169 89.0019C101.568 89.0019 102.907 87.6705 102.907 86.0281C102.907 84.3857 101.568 83.0543 99.9169 83.0543C98.2653 83.0543 96.9264 84.3857 96.9264 86.0281Z" fill="#9871F5"/>
<path d="M96.9264 106.798C96.9264 108.441 98.2653 109.772 99.9169 109.772C101.568 109.772 102.907 108.441 102.907 106.798C102.907 105.156 101.568 103.825 99.9169 103.825C98.2653 103.825 96.9264 105.156 96.9264 106.798Z" fill="#9871F5"/>
<path d="M76.0374 2.97403C76.0374 4.61641 77.3762 5.94782 79.0278 5.94782C80.6794 5.94782 82.0183 4.61641 82.0183 2.97403C82.0183 1.33166 80.6794 0.000244082 79.0278 0.00024401C77.3762 0.000243938 76.0374 1.33166 76.0374 2.97403Z" fill="#9871F5"/>
<path d="M76.0373 23.747C76.0373 25.3894 77.3762 26.7208 79.0278 26.7208C80.6794 26.7208 82.0182 25.3894 82.0182 23.747C82.0182 22.1046 80.6794 20.7732 79.0278 20.7732C77.3762 20.7732 76.0373 22.1046 76.0373 23.747Z" fill="#9871F5"/>
<path d="M76.0373 44.5015C76.0373 46.1439 77.3762 47.4753 79.0278 47.4753C80.6794 47.4753 82.0182 46.1439 82.0182 44.5015C82.0182 42.8591 80.6794 41.5277 79.0278 41.5277C77.3762 41.5277 76.0373 42.8591 76.0373 44.5015Z" fill="#9871F5"/>
<path d="M76.0374 65.2718C76.0374 66.9141 77.3763 68.2456 79.0278 68.2456C80.6794 68.2456 82.0183 66.9141 82.0183 65.2718C82.0183 63.6294 80.6794 62.298 79.0278 62.298C77.3763 62.298 76.0374 63.6294 76.0374 65.2718Z" fill="#9871F5"/>
<path d="M76.0374 86.0281C76.0374 87.6705 77.3762 89.0019 79.0278 89.0019C80.6794 89.0019 82.0183 87.6705 82.0183 86.0281C82.0183 84.3857 80.6794 83.0543 79.0278 83.0543C77.3762 83.0543 76.0374 84.3857 76.0374 86.0281Z" fill="#9871F5"/>
<path d="M76.0373 106.798C76.0373 108.441 77.3762 109.772 79.0278 109.772C80.6794 109.772 82.0182 108.441 82.0182 106.798C82.0182 105.156 80.6794 103.825 79.0278 103.825C77.3762 103.825 76.0373 105.156 76.0373 106.798Z" fill="#9871F5"/>
<path d="M55.1645 2.97403C55.1645 4.61641 56.5034 5.94782 58.155 5.94782C59.8066 5.94782 61.1454 4.61641 61.1454 2.97403C61.1454 1.33166 59.8066 0.000244082 58.155 0.00024401C56.5034 0.000243938 55.1645 1.33166 55.1645 2.97403Z" fill="#9871F5"/>
<path d="M55.1645 23.747C55.1645 25.3894 56.5034 26.7208 58.155 26.7208C59.8066 26.7208 61.1454 25.3894 61.1454 23.747C61.1454 22.1046 59.8066 20.7732 58.155 20.7732C56.5034 20.7732 55.1645 22.1046 55.1645 23.747Z" fill="#9871F5"/>
<path d="M55.1645 44.5015C55.1645 46.1439 56.5034 47.4753 58.155 47.4753C59.8066 47.4753 61.1454 46.1439 61.1454 44.5015C61.1454 42.8591 59.8066 41.5277 58.155 41.5277C56.5034 41.5277 55.1645 42.8591 55.1645 44.5015Z" fill="#9871F5"/>
<path d="M55.1645 65.2718C55.1645 66.9141 56.5034 68.2456 58.155 68.2456C59.8066 68.2456 61.1454 66.9141 61.1454 65.2718C61.1454 63.6294 59.8066 62.298 58.155 62.298C56.5034 62.298 55.1645 63.6294 55.1645 65.2718Z" fill="#9871F5"/>
<path d="M55.1645 86.0281C55.1645 87.6705 56.5034 89.0019 58.155 89.0019C59.8066 89.0019 61.1454 87.6705 61.1454 86.0281C61.1454 84.3857 59.8066 83.0543 58.155 83.0543C56.5034 83.0543 55.1645 84.3857 55.1645 86.0281Z" fill="#9871F5"/>
<path d="M55.1645 106.798C55.1645 108.441 56.5034 109.772 58.155 109.772C59.8066 109.772 61.1454 108.441 61.1454 106.798C61.1454 105.156 59.8066 103.825 58.155 103.825C56.5034 103.825 55.1645 105.156 55.1645 106.798Z" fill="#9871F5"/>
<path d="M458.364 457.433C458.364 459.075 459.703 460.406 461.355 460.406C463.006 460.406 464.345 459.075 464.345 457.433C464.345 455.79 463.006 454.459 461.355 454.459C459.703 454.459 458.364 455.79 458.364 457.433Z" fill="#9871F5"/>
<path d="M458.366 478.188C458.366 479.83 459.704 481.161 461.356 481.161C463.008 481.161 464.346 479.83 464.346 478.188C464.346 476.545 463.008 475.214 461.356 475.214C459.704 475.214 458.366 476.545 458.366 478.188Z" fill="#9871F5"/>
<path d="M458.366 498.957C458.366 500.6 459.704 501.931 461.356 501.931C463.008 501.931 464.346 500.6 464.346 498.957C464.346 497.315 463.008 495.983 461.356 495.983C459.704 495.983 458.366 497.315 458.366 498.957Z" fill="#9871F5"/>
<path d="M437.477 457.431C437.477 459.073 438.815 460.404 440.467 460.404C442.119 460.404 443.458 459.073 443.458 457.431C443.458 455.788 442.119 454.457 440.467 454.457C438.815 454.457 437.477 455.788 437.477 457.431Z" fill="#9871F5"/>
<path d="M437.477 478.188C437.477 479.83 438.815 481.161 440.467 481.161C442.119 481.161 443.458 479.83 443.458 478.188C443.458 476.545 442.119 475.214 440.467 475.214C438.815 475.214 437.477 476.545 437.477 478.188Z" fill="#9871F5"/>
<path d="M437.477 498.955C437.477 500.598 438.815 501.929 440.467 501.929C442.119 501.929 443.458 500.598 443.458 498.955C443.458 497.313 442.119 495.982 440.467 495.982C438.815 495.982 437.477 497.313 437.477 498.955Z" fill="#9871F5"/>
<path d="M532.074 91.7015C532.074 93.3439 533.413 94.6752 535.064 94.6752C536.716 94.6752 538.055 93.3439 538.055 91.7015C538.055 90.0591 536.716 88.7277 535.064 88.7277C533.413 88.7277 532.074 90.0591 532.074 91.7015Z" fill="#9871F5"/>
<path d="M532.074 112.455C532.074 114.097 533.413 115.429 535.065 115.429C536.716 115.429 538.055 114.097 538.055 112.455C538.055 110.813 536.716 109.481 535.065 109.481C533.413 109.481 532.074 110.813 532.074 112.455Z" fill="#9871F5"/>
<path d="M532.074 133.227C532.074 134.87 533.413 136.201 535.065 136.201C536.716 136.201 538.055 134.87 538.055 133.227C538.055 131.585 536.716 130.254 535.065 130.254C533.413 130.254 532.074 131.585 532.074 133.227Z" fill="#9871F5"/>
<path d="M511.185 91.7009C511.185 93.3433 512.524 94.6746 514.176 94.6746C515.827 94.6746 517.166 93.3433 517.166 91.7009C517.166 90.0585 515.827 88.7271 514.176 88.7271C512.524 88.7271 511.185 90.0585 511.185 91.7009Z" fill="#9871F5"/>
<path d="M511.185 112.457C511.185 114.099 512.524 115.431 514.176 115.431C515.827 115.431 517.166 114.099 517.166 112.457C517.166 110.815 515.827 109.483 514.176 109.483C512.524 109.483 511.185 110.815 511.185 112.457Z" fill="#9871F5"/>
<path d="M511.185 133.227C511.185 134.87 512.524 136.201 514.176 136.201C515.827 136.201 517.166 134.87 517.166 133.227C517.166 131.585 515.827 130.254 514.176 130.254C512.524 130.254 511.185 131.585 511.185 133.227Z" fill="#9871F5"/>
<path d="M125.287 642.71C125.287 644.353 126.626 645.684 128.277 645.684C129.929 645.684 131.268 644.353 131.268 642.71C131.268 641.068 129.929 639.737 128.277 639.737C126.626 639.737 125.287 641.068 125.287 642.71Z" fill="#9871F5"/>
<path d="M104.398 642.71C104.398 644.353 105.737 645.684 107.388 645.684C109.04 645.684 110.379 644.353 110.379 642.71C110.379 641.068 109.04 639.737 107.388 639.737C105.737 639.737 104.398 641.068 104.398 642.71Z" fill="#9871F5"/>
<path d="M83.5244 642.71C83.5244 644.353 84.8633 645.684 86.5148 645.684C88.1664 645.684 89.5053 644.353 89.5053 642.71C89.5053 641.068 88.1664 639.737 86.5148 639.737C84.8633 639.737 83.5244 641.068 83.5244 642.71Z" fill="#9871F5"/>
<path d="M62.6354 642.71C62.6354 644.353 63.9743 645.684 65.6259 645.684C67.2774 645.684 68.6163 644.353 68.6163 642.71C68.6163 641.068 67.2774 639.737 65.6259 639.737C63.9743 639.737 62.6354 641.068 62.6354 642.71Z" fill="#9871F5"/>
<path d="M41.7624 642.71C41.7624 644.353 43.1013 645.684 44.7529 645.684C46.4045 645.684 47.7433 644.353 47.7433 642.71C47.7433 641.068 46.4045 639.737 44.7529 639.737C43.1013 639.737 41.7624 641.068 41.7624 642.71Z" fill="#9871F5"/>
<path d="M20.8734 642.71C20.8734 644.353 22.2122 645.684 23.8638 645.684C25.5154 645.684 26.8543 644.353 26.8543 642.71C26.8543 641.068 25.5154 639.737 23.8638 639.737C22.2122 639.737 20.8734 641.068 20.8734 642.71Z" fill="#9871F5"/>
<path d="M2.84802e-05 642.71C2.84084e-05 644.353 1.33891 645.684 2.99049 645.684C4.64208 645.684 5.98096 644.353 5.98096 642.71C5.98096 641.068 4.64208 639.737 2.99049 639.737C1.33891 639.737 2.8552e-05 641.068 2.84802e-05 642.71Z" fill="#9871F5"/>
<path d="M125.287 621.939C125.287 623.581 126.626 624.913 128.277 624.913C129.929 624.913 131.268 623.581 131.268 621.939C131.268 620.297 129.929 618.965 128.277 618.965C126.626 618.965 125.287 620.297 125.287 621.939Z" fill="#9871F5"/>
<path d="M104.398 621.939C104.398 623.581 105.737 624.913 107.388 624.913C109.04 624.913 110.379 623.581 110.379 621.939C110.379 620.297 109.04 618.965 107.388 618.965C105.737 618.965 104.398 620.297 104.398 621.939Z" fill="#9871F5"/>
<path d="M83.5244 621.939C83.5244 623.581 84.8633 624.913 86.5148 624.913C88.1664 624.913 89.5053 623.581 89.5053 621.939C89.5053 620.297 88.1664 618.965 86.5148 618.965C84.8633 618.965 83.5244 620.297 83.5244 621.939Z" fill="#9871F5"/>
<path d="M62.6354 621.939C62.6354 623.581 63.9743 624.913 65.6259 624.913C67.2774 624.913 68.6163 623.581 68.6163 621.939C68.6163 620.297 67.2774 618.965 65.6259 618.965C63.9743 618.965 62.6354 620.297 62.6354 621.939Z" fill="#9871F5"/>
<path d="M41.7624 621.939C41.7624 623.581 43.1013 624.913 44.7529 624.913C46.4045 624.913 47.7433 623.581 47.7433 621.939C47.7433 620.297 46.4045 618.965 44.7529 618.965C43.1013 618.965 41.7624 620.297 41.7624 621.939Z" fill="#9871F5"/>
<path d="M20.8733 621.939C20.8733 623.581 22.2122 624.913 23.8638 624.913C25.5154 624.913 26.8543 623.581 26.8543 621.939C26.8543 620.297 25.5154 618.965 23.8638 618.965C22.2122 618.965 20.8733 620.297 20.8733 621.939Z" fill="#9871F5"/>
<path d="M2.84802e-05 621.939C2.84085e-05 623.581 1.33891 624.913 2.99049 624.913C4.64208 624.913 5.98096 623.581 5.98096 621.939C5.98096 620.297 4.64208 618.965 2.99049 618.965C1.33891 618.965 2.8552e-05 620.297 2.84802e-05 621.939Z" fill="#9871F5"/>
<path d="M125.287 601.183C125.287 602.825 126.626 604.157 128.277 604.157C129.929 604.157 131.268 602.825 131.268 601.183C131.268 599.541 129.929 598.209 128.277 598.209C126.626 598.209 125.287 599.541 125.287 601.183Z" fill="#9871F5"/>
<path d="M104.398 601.183C104.398 602.825 105.737 604.157 107.388 604.157C109.04 604.157 110.379 602.825 110.379 601.183C110.379 599.541 109.04 598.209 107.388 598.209C105.737 598.209 104.398 599.541 104.398 601.183Z" fill="#9871F5"/>
<path d="M83.5244 601.183C83.5244 602.825 84.8633 604.157 86.5148 604.157C88.1664 604.157 89.5053 602.825 89.5053 601.183C89.5053 599.541 88.1664 598.209 86.5148 598.209C84.8633 598.209 83.5244 599.541 83.5244 601.183Z" fill="#9871F5"/>
<path d="M62.6354 601.183C62.6354 602.825 63.9743 604.157 65.6259 604.157C67.2774 604.157 68.6163 602.825 68.6163 601.183C68.6163 599.541 67.2774 598.209 65.6259 598.209C63.9743 598.209 62.6354 599.541 62.6354 601.183Z" fill="#9871F5"/>
<path d="M41.7624 601.183C41.7624 602.825 43.1013 604.157 44.7529 604.157C46.4045 604.157 47.7433 602.825 47.7433 601.183C47.7433 599.541 46.4045 598.209 44.7529 598.209C43.1013 598.209 41.7624 599.541 41.7624 601.183Z" fill="#9871F5"/>
<path d="M20.8733 601.183C20.8733 602.825 22.2122 604.157 23.8638 604.157C25.5154 604.157 26.8542 602.825 26.8542 601.183C26.8542 599.541 25.5154 598.209 23.8638 598.209C22.2122 598.209 20.8733 599.541 20.8733 601.183Z" fill="#9871F5"/>
<path d="M2.84802e-05 601.183C2.84085e-05 602.825 1.33891 604.157 2.99049 604.157C4.64208 604.157 5.98096 602.825 5.98096 601.183C5.98096 599.541 4.64208 598.209 2.99049 598.209C1.33891 598.209 2.8552e-05 599.541 2.84802e-05 601.183Z" fill="#9871F5"/>
<path d="M125.285 580.413C125.285 582.055 126.624 583.387 128.275 583.387C129.927 583.387 131.266 582.055 131.266 580.413C131.266 578.771 129.927 577.439 128.275 577.439C126.624 577.439 125.285 578.771 125.285 580.413Z" fill="#9871F5"/>
<path d="M104.398 580.412C104.398 582.055 105.737 583.386 107.388 583.386C109.04 583.386 110.379 582.055 110.379 580.412C110.379 578.77 109.04 577.439 107.388 577.439C105.737 577.439 104.398 578.77 104.398 580.412Z" fill="#9871F5"/>
<path d="M83.5244 580.412C83.5244 582.055 84.8633 583.386 86.5148 583.386C88.1664 583.386 89.5053 582.055 89.5053 580.412C89.5053 578.77 88.1664 577.439 86.5148 577.439C84.8633 577.439 83.5244 578.77 83.5244 580.412Z" fill="#9871F5"/>
<path d="M62.6354 580.412C62.6354 582.055 63.9743 583.386 65.6258 583.386C67.2774 583.386 68.6163 582.055 68.6163 580.412C68.6163 578.77 67.2774 577.439 65.6258 577.439C63.9743 577.439 62.6354 578.77 62.6354 580.412Z" fill="#9871F5"/>
<path d="M41.7624 580.412C41.7624 582.055 43.1013 583.386 44.7529 583.386C46.4045 583.386 47.7433 582.055 47.7433 580.412C47.7433 578.77 46.4045 577.439 44.7529 577.439C43.1013 577.439 41.7624 578.77 41.7624 580.412Z" fill="#9871F5"/>
<path d="M20.8733 580.412C20.8733 582.055 22.2122 583.386 23.8638 583.386C25.5154 583.386 26.8543 582.055 26.8543 580.412C26.8543 578.77 25.5154 577.439 23.8638 577.439C22.2122 577.439 20.8733 578.77 20.8733 580.412Z" fill="#9871F5"/>
<path d="M2.84802e-05 580.412C2.84085e-05 582.055 1.33891 583.386 2.99049 583.386C4.64208 583.386 5.98096 582.055 5.98096 580.412C5.98096 578.77 4.64208 577.439 2.99049 577.439C1.33891 577.439 2.8552e-05 578.77 2.84802e-05 580.412Z" fill="#9871F5"/>
</svg>
