<svg width="588" height="667" viewBox="0 0 588 667" fill="none" xmlns="http://www.w3.org/2000/svg">
<path d="M500.725 661.405C495.682 661.405 491.593 657.339 491.593 652.324C491.593 647.308 495.682 643.242 500.725 643.242C505.768 643.242 509.857 647.308 509.857 652.324C509.857 657.323 505.768 661.405 500.725 661.405Z" stroke="#04D361" stroke-width="3" stroke-miterlimit="10" stroke-linecap="round" stroke-linejoin="round"/>
<path d="M494.425 658.887L487.967 665.294" stroke="#04D361" stroke-width="3" stroke-miterlimit="10" stroke-linecap="round" stroke-linejoin="round"/>
<path d="M329.372 2L319.765 11.5541" stroke="#04D361" stroke-width="3" stroke-miterlimit="10" stroke-linecap="round" stroke-linejoin="round"/>
<path d="M329.372 11.5541L319.765 2" stroke="#04D361" stroke-width="3" stroke-miterlimit="10" stroke-linecap="round" stroke-linejoin="round"/>
<path d="M315.617 576.763L306.01 586.317" stroke="#04D361" stroke-width="3" stroke-miterlimit="10" stroke-linecap="round" stroke-linejoin="round"/>
<path d="M315.617 586.317L306.01 576.763" stroke="#04D361" stroke-width="3" stroke-miterlimit="10" stroke-linecap="round" stroke-linejoin="round"/>
<path d="M15.5866 187.274L2 187.274" stroke="#04D361" stroke-width="3" stroke-miterlimit="10" stroke-linecap="round" stroke-linejoin="round"/>
<path d="M8.79486 194.046L8.79486 180.52" stroke="#04D361" stroke-width="3" stroke-miterlimit="10" stroke-linecap="round" stroke-linejoin="round"/>
<path d="M413.022 138.422C408.472 138.422 404.765 134.752 404.765 130.211C404.765 125.686 408.456 122 413.022 122C417.572 122 421.279 125.67 421.279 130.211C421.263 134.752 417.572 138.422 413.022 138.422Z" stroke="#04D361" stroke-width="3" stroke-miterlimit="10" stroke-linecap="round" stroke-linejoin="round"/>
<path d="M577.899 345.169C573.349 345.169 569.642 341.499 569.642 336.958C569.642 332.434 573.333 328.747 577.899 328.747C582.449 328.747 586.156 332.418 586.156 336.958C586.14 341.499 582.449 345.169 577.899 345.169Z" stroke="#04D361" stroke-width="3" stroke-miterlimit="10" stroke-linecap="round" stroke-linejoin="round"/>
<path d="M58.7474 471.906C54.1973 471.906 50.4904 468.236 50.4904 463.695C50.4904 459.17 54.1814 455.484 58.7474 455.484C63.2975 455.484 67.0044 459.155 67.0044 463.695C66.9885 468.236 63.2975 471.906 58.7474 471.906Z" stroke="#04D361" stroke-width="3" stroke-miterlimit="10" stroke-linecap="round" stroke-linejoin="round"/>
</svg>
